<svg width="640" height="108" viewBox="0 0 640 108" xmlns="http://www.w3.org/2000/svg">
<rect width="640" height="108" rx="10" fill="#0d1117"/>
<rect x="0" y="14" width="315" height="80" rx="8" fill="#161b22" stroke="#30363d" stroke-width="0.5"/>
<text x="14" y="32" font-family="monospace" font-size="9" fill="#484f58" font-weight="normal" letter-spacing="2" text-anchor="start">WEATHER  ·  OSLO</text>
<text x="14" y="64" font-family="monospace" font-size="20" fill="#e6edf3" font-weight="normal" letter-spacing="0" text-anchor="start">🌙</text>
<text x="48" y="64" font-family="monospace" font-size="19" fill="#e6db74" font-weight="600" letter-spacing="0" text-anchor="start">8°C</text>
<text x="14" y="84" font-family="monospace" font-size="10" fill="#8b949e" font-weight="normal" letter-spacing="0" text-anchor="start">Fair</text>
<rect x="325" y="14" width="315" height="80" rx="8" fill="#161b22" stroke="#30363d" stroke-width="0.5"/>
<text x="339" y="32" font-family="monospace" font-size="9" fill="#484f58" font-weight="normal" letter-spacing="2" text-anchor="start">FOCUS</text>
<text x="339" y="48" font-family="monospace" font-size="9" fill="#8b949e" font-weight="normal" letter-spacing="0" text-anchor="start">backend</text>
<rect x="389" y="43" width="237" height="4" rx="2" fill="#21262d"/><rect x="389" y="43" width="208" height="4" rx="2" fill="#39d353"/>
<text x="339" y="64" font-family="monospace" font-size="9" fill="#8b949e" font-weight="normal" letter-spacing="0" text-anchor="start">infra</text>
<rect x="389" y="59" width="237" height="4" rx="2" fill="#21262d"/><rect x="389" y="59" width="177" height="4" rx="2" fill="#58a6ff"/>
<text x="339" y="80" font-family="monospace" font-size="9" fill="#8b949e" font-weight="normal" letter-spacing="0" text-anchor="start">AI/ML</text>
<rect x="389" y="75" width="237" height="4" rx="2" fill="#21262d"/><rect x="389" y="75" width="130" height="4" rx="2" fill="#bc8cff"/>
<text x="301" y="84" font-family="monospace" font-size="9" fill="#484f58" font-weight="normal" letter-spacing="0" text-anchor="end">updated 21:30 UTC</text>
</svg>
